<svg xmlns="http://www.w3.org/2000/svg" viewBox="0 0 315.52 327.36"><defs><style>.cls-1{fill:#de2900;}.cls-2{fill:none;stroke:#fff;stroke-miterlimit:10;stroke-width:1.16px;}.cls-3{fill:#fff;}</style></defs><title>POPI</title><g id="Layer_2" data-name="Layer 2"><g id="Layer_1-2" data-name="Layer 1"><path d="M27.35,235.4c11-10.39,32.1,12.89,62.79,8.14,37.93-5.86,37.59-46.32,74.43-54.65,36.11-8.17,52.65,27,94.19,17.44,27.82-6.42,37.67-26.2,47.68-20.93,13.42,7.06,12.65,51.54-7,83.73-40.34,66.15-147.37,59-168.62,57C107.5,323.9,55.51,319,33.16,281.92,24,266.75,18.4,243.81,27.35,235.4Z"/><path class="cls-1" d="M225.89,35.38c-9.57,9.54-20.83,20.77-17.71,29.69,3.65,10.47,26,14.65,42.21,9.24C283.26,63.37,297.75,11,286.69,1.69,276.58-6.81,242.66,18.66,225.89,35.38Z"/><path class="cls-1" d="M64.5,60.93c9.6,9.4,20.89,20.45,17.81,29.2C78.7,100.39,56.41,104.4,40.16,99,7.28,88.18-7.39,36.73,3.62,27.64,13.69,19.34,47.68,44.46,64.5,60.93Z"/><path d="M21.53,134.23C9.52,156.4,9.72,168.82,9.9,172.61c.26,5.31.79,16.22,8.14,25.58,10.73,13.65,31.63,18.42,47.68,14,21.39-6,19-24.08,47.68-45.36a118.58,118.58,0,0,1,52.33-22.09c8.79-1.26,31.09-4.18,54.66,5.81,19.69,8.35,22,18,36.05,18.61,15.68.69,33.82-10.44,38.37-24.42,8-24.47-25.94-56.89-51.17-72.1C178.05,33.05,89.58,60.69,52.93,93.53,43.71,101.8,31.32,116.17,21.53,134.23Z"/><path class="cls-2" d="M130.84,279.59a88.79,88.79,0,0,0,90.71-23.25"/><circle class="cls-3" cx="207.59" cy="105.16" r="17.44"/><circle class="cls-3" cx="101.77" cy="105.16" r="17.44"/></g></g></svg>
